<?xml version="1.0" standalone="no"?>
<!DOCTYPE svg PUBLIC "-//W3C//DTD SVG 20010904//EN"
 "http://www.w3.org/TR/2001/REC-SVG-20010904/DTD/svg10.dtd">
<svg version="1.0" xmlns="http://www.w3.org/2000/svg"
 width="260.000000pt" height="260.000000pt" viewBox="0 0 260.000000 260.000000"
 preserveAspectRatio="xMidYMid meet">
<metadata>
Created by potrace 1.11, written by Peter Selinger 2001-2013
</metadata>
<g transform="translate(0.000000,260.000000) scale(0.100000,-0.100000)"
fill="#000000" stroke="none">
<path d="M719 2538 c-1 -2 -2 -49 -3 -106 -1 -84 1 -103 14 -106 8 -2 286 -4
618 -3 l602 0 0 109 0 108 -615 0 c-338 0 -616 -1 -616 -2z"/>
<path d="M807 2274 c-1 -1 -41 -4 -89 -7 -108 -6 -152 -26 -180 -80 -23 -46
-35 -149 -30 -273 l3 -81 819 -1 820 0 1 42 c6 250 -10 325 -79 367 -37 22
-40 22 -577 26 -297 2 -573 4 -613 6 -41 1 -74 1 -75 1z"/>
<path d="M513 1756 c-4 -6 -7 -1080 -4 -1238 l1 -26 818 1 817 2 2 633 c1 586
0 632 -15 633 -120 6 -1615 2 -1619 -5z"/>
<path d="M555 430 l-50 -5 1 -151 c0 -180 12 -215 84 -251 l44 -23 696 0 c634
1 698 2 729 18 47 23 69 57 81 122 10 55 15 278 6 287 -6 6 -1528 9 -1591 3z"/>
</g>
</svg>
