<?xml version="1.0" standalone="no"?>
<!DOCTYPE svg PUBLIC "-//W3C//DTD SVG 20010904//EN"
 "http://www.w3.org/TR/2001/REC-SVG-20010904/DTD/svg10.dtd">
<svg version="1.0" xmlns="http://www.w3.org/2000/svg"
 width="512.000000pt" height="512.000000pt" viewBox="0 0 512.000000 512.000000"
 preserveAspectRatio="xMidYMid meet">
<metadata>
Created by potrace 1.11, written by Peter Selinger 2001-2013
</metadata>
<g transform="translate(0.000000,512.000000) scale(0.100000,-0.100000)"
fill="#000000" stroke="none">
<path d="M492 5020 c-202 -53 -365 -204 -425 -395 l-22 -70 0 -1985 0 -1985
23 -72 c12 -41 44 -104 73 -147 76 -115 180 -191 329 -242 53 -18 121 -19
2090 -19 1969 0 2037 1 2090 19 149 51 253 127 329 242 29 43 61 106 73 147
l23 72 0 1985 0 1985 -23 72 c-60 192 -222 341 -430 394 -73 18 -130 19 -2066
18 -1926 0 -1993 -1 -2064 -19z m4099 -206 c108 -32 199 -110 248 -213 l26
-56 0 -1975 0 -1975 -26 -56 c-49 -103 -140 -181 -248 -213 -49 -14 -255 -16
-2031 -16 -1776 0 -1982 2 -2031 16 -108 32 -199 110 -248 213 l-26 56 0 1975
0 1975 26 55 c48 102 133 177 238 211 53 17 162 18 2037 18 1781 1 1986 -1
2035 -15z"/>
<path d="M976 3733 c-40 -201 -46 -231 -57 -288 -11 -60 -24 -129 -54 -285 -9
-47 -23 -116 -30 -155 -7 -38 -20 -107 -29 -152 -33 -171 -48 -251 -66 -348
-17 -92 -27 -144 -65 -340 -39 -201 -48 -247 -62 -320 -8 -44 -21 -111 -28
-150 -34 -173 -56 -293 -62 -327 l-6 -38 605 0 605 0 12 58 c16 79 46 239 66
352 18 100 25 123 39 122 5 0 28 -36 52 -79 23 -43 89 -161 147 -263 l104
-185 394 0 394 0 36 65 c19 36 66 119 104 185 37 66 88 157 113 202 49 90 66
95 75 25 5 -46 63 -358 79 -429 l11 -53 604 0 c568 0 603 1 603 18 0 15 -26
156 -50 272 -5 25 -19 97 -30 160 -12 63 -35 180 -50 260 -32 159 -84 434 -99
520 -6 30 -17 89 -25 130 -8 41 -21 111 -30 155 -8 44 -22 116 -31 160 -8 44
-22 114 -29 155 -8 41 -22 113 -31 160 -19 99 -39 205 -66 345 -10 55 -21 112
-25 128 l-6 27 -630 -2 -630 -3 -119 -275 c-65 -151 -126 -289 -134 -306 -8
-18 -15 -37 -15 -43 0 -6 -9 -11 -20 -11 -11 0 -20 5 -20 11 0 6 -6 25 -14 42
-29 63 -64 144 -95 217 -18 41 -43 99 -57 128 -13 29 -24 55 -24 58 0 3 -14
36 -31 72 -17 37 -35 77 -40 90 l-9 22 -628 0 -629 0 -17 -87z m1689 -833
c388 -30 781 -182 916 -354 l22 -28 -39 -35 c-141 -123 -298 -217 -458 -272
-405 -142 -928 -107 -1331 89 -103 49 -241 150 -272 197 -17 26 -17 26 27 66
65 58 226 162 312 201 199 90 382 130 678 144 14 1 79 -3 145 -8z"/>
<path d="M2475 2829 c-102 -25 -187 -95 -230 -190 -25 -56 -27 -70 -23 -148 7
-136 66 -225 185 -282 111 -53 237 -41 339 33 161 115 178 354 36 496 -77 77
-207 116 -307 91z"/>
</g>
</svg>
