<?xml version="1.0" encoding="utf-8"?>
<!-- Generator: Adobe Illustrator 16.0.0, SVG Export Plug-In . SVG Version: 6.00 Build 0)  -->
<!DOCTYPE svg PUBLIC "-//W3C//DTD SVG 1.1//EN" "http://www.w3.org/Graphics/SVG/1.1/DTD/svg11.dtd">
<svg version="1.1" id="Livello_1" xmlns="http://www.w3.org/2000/svg" xmlns:xlink="http://www.w3.org/1999/xlink" x="0px" y="0px"
	 width="354.734px" height="135.853px" viewBox="0 0 354.734 135.853" enable-background="new 0 0 354.734 135.853"
	 xml:space="preserve">
<polygon opacity="0.5" fill="#F0E7D7" points="56.948,54.496 119.408,24.979 166.781,75.261 133.599,135.853 65.719,123.02 "/>
<g>
	<path d="M125.075,68.247c0.863-1.9,1.9-4.347,3.109-7.342c1.209-2.993,2.475-6.232,3.8-9.717c1.324-3.483,2.678-7.052,4.06-10.71
		c1.382-3.656,2.677-7.125,3.887-10.408c1.209-3.282,2.259-6.219,3.152-8.81c0.892-2.591,1.54-4.578,1.944-5.96
		c-3.628,1.498-6.737,3.772-9.329,6.824c-2.591,3.052-4.549,6.881-5.873,11.487c-1.325-0.46-2.535-1.281-3.628-2.461
		c-1.094-1.18-1.813-2.663-2.159-4.449c0.575-2.647,1.654-5.066,3.239-7.255c1.583-2.188,3.585-4.06,6.003-5.614
		c2.418-1.555,5.21-2.749,8.378-3.584c3.166-0.834,6.564-1.252,10.191-1.252c4.606,0,8.838,0.677,12.697,2.03
		c3.857,1.354,7.168,3.238,9.933,5.657c2.764,2.419,4.923,5.327,6.478,8.724c1.554,3.398,2.332,7.169,2.332,11.314
		c0,5.644-1.036,11.028-3.109,16.152c-2.073,5.125-4.88,9.646-8.421,13.561c-3.541,3.916-7.644,7.039-12.308,9.371
		c-4.664,2.332-9.559,3.498-14.683,3.498c-4.722,0-8.767-0.937-12.135-2.807C129.264,74.624,126.745,71.875,125.075,68.247z
		 M155.564,13.315c-2.88,0-5.614,0.403-8.206,1.209c2.533,0.922,4.634,1.887,6.305,2.894c1.669,1.008,2.821,1.8,3.455,2.375
		c-0.461,0.634-1.138,1.757-2.03,3.368c-0.894,1.613-1.93,3.571-3.109,5.874c-1.181,2.303-2.433,4.823-3.757,7.557
		c-1.325,2.736-2.621,5.542-3.887,8.421c-3.282,7.313-5.657,13.072-7.126,17.274c-1.468,4.204-2.202,7.112-2.202,8.723
		c0.806,0.289,1.784,0.49,2.937,0.604c1.151,0.116,2.389,0.173,3.714,0.173c4.664,0,9.082-1.08,13.258-3.239
		c4.174-2.159,7.83-5.053,10.969-8.681c3.138-3.627,5.614-7.845,7.428-12.653c1.814-4.807,2.721-9.86,2.721-15.158
		c0-5.93-1.843-10.537-5.528-13.819C166.821,14.956,161.839,13.315,155.564,13.315z"/>
	<path d="M217.061,36.98c-0.23,3.571-0.864,6.637-1.9,9.199c-1.036,2.563-2.52,4.809-4.448,6.737c-1.93,1.93-4.276,3.671-7.04,5.226
		s-5.989,3.053-9.674,4.491c0,0.346-0.014,0.706-0.043,1.08c-0.03,0.375-0.043,0.764-0.043,1.166c0,0.749,0.057,1.526,0.172,2.333
		c0.115,0.807,0.316,1.555,0.605,2.245c0.288,0.691,0.691,1.252,1.209,1.684c0.519,0.432,1.18,0.648,1.987,0.648
		c1.555,0,3.08-0.345,4.578-1.037c1.497-0.691,2.922-1.54,4.276-2.547c1.351-1.007,2.619-2.102,3.8-3.282
		c1.18-1.18,2.23-2.259,3.153-3.239c0.574,0.519,1.064,1.009,1.468,1.469c-2.59,3.455-5.428,6.32-8.507,8.594
		c-3.081,2.274-6.003,3.728-8.767,4.362c-3.973-0.461-7.069-1.915-9.285-4.362c-2.217-2.447-3.325-5.398-3.325-8.853
		c0-2.36,0.331-4.764,0.993-7.212c0.662-2.447,1.583-4.807,2.764-7.083c1.18-2.274,2.562-4.418,4.146-6.435
		c1.583-2.015,3.282-3.771,5.096-5.269c1.814-1.497,3.685-2.677,5.614-3.541c1.929-0.864,3.843-1.295,5.744-1.295
		C212.28,32.403,214.757,34.044,217.061,36.98z M211.101,39.831c-1.555,0.23-3.167,0.864-4.837,1.9
		c-1.671,1.037-3.239,2.418-4.707,4.146c-1.468,1.727-2.807,3.744-4.017,6.046c-1.209,2.304-2.159,4.78-2.85,7.428
		c4.606-2.302,8.435-5.139,11.487-8.507C209.229,47.475,210.87,43.804,211.101,39.831z"/>
	<path d="M250.83,38.233c-0.058,1.095-0.244,2.232-0.561,3.412c-0.317,1.181-0.706,2.246-1.166,3.196
		c-0.461,0.95-0.95,1.742-1.468,2.375c-0.519,0.634-1.01,0.95-1.469,0.95c-0.634-0.057-1.008-0.488-1.123-1.295
		c0-0.173,0.071-0.445,0.217-0.82c0.142-0.374,0.303-0.791,0.475-1.252c0.172-0.46,0.33-0.92,0.475-1.382
		c0.144-0.46,0.217-0.864,0.217-1.209c0-0.806-0.189-1.482-0.563-2.03c-0.374-0.546-0.879-0.82-1.512-0.82
		c-2.302,0-4.059,1.433-5.268,4.298s-1.814,7.077-1.814,12.636c0,0.574,0.028,0.918,0.086,1.031c1.209,0,2.289,0,3.24,0
		c0.949,0,1.885,0,2.806,0c0.057,0.115,0.086,0.344,0.086,0.687c0,0.517-0.116,0.889-0.346,1.118
		c-1.325,0.287-2.375,0.532-3.152,0.731c-0.777,0.201-1.368,0.387-1.77,0.559c-0.404,0.173-0.648,0.359-0.734,0.559
		c-0.088,0.201-0.131,0.473-0.131,0.816c0,0.459,0.013,0.917,0.043,1.375s0.045,1.031,0.045,1.718c0,4.813-1.312,8.686-3.931,11.618
		c-2.62,2.932-6.262,4.628-10.926,5.089c-0.807-0.058-1.641-0.289-2.504-0.691c-0.864-0.403-1.685-0.922-2.462-1.555
		c-0.778-0.634-1.454-1.338-2.03-2.116s-0.979-1.57-1.209-2.375c0-2.205,0.459-4.308,1.382-6.311
		c0.92-2.001,2.172-3.771,3.757-5.309c1.583-1.539,3.455-2.786,5.615-3.744c2.158-0.957,4.503-1.436,7.039-1.436
		c0-1.445-0.144-2.862-0.432-4.25c-0.289-1.387-0.592-2.732-0.908-4.034c-0.316-1.301-0.619-2.573-0.906-3.818
		c-0.29-1.243-0.432-2.472-0.432-3.687c0-1.56,0.316-3.106,0.949-4.639c0.633-1.533,1.469-2.951,2.505-4.251
		c1.037-1.301,2.246-2.413,3.627-3.339c1.383-0.926,2.822-1.562,4.318-1.91c0.633,0.173,1.482,0.678,2.549,1.512
		c1.064,0.835,2.117,1.771,3.152,2.807c1.037,1.037,1.956,2.087,2.764,3.152C250.168,36.665,250.658,37.542,250.83,38.233z
		 M222.328,77.619c1.382-0.577,2.69-1.412,3.931-2.505c1.237-1.094,2.317-2.333,3.238-3.714c0.919-1.382,1.654-2.85,2.203-4.405
		c0.546-1.555,0.82-3.08,0.82-4.578c-1.153,0.173-2.419,0.706-3.8,1.598c-1.383,0.893-2.678,1.958-3.887,3.196
		c-1.209,1.238-2.218,2.52-3.023,3.843c-0.807,1.325-1.209,2.475-1.209,3.455C220.601,75.775,221.175,76.812,222.328,77.619z"/>
	<path d="M251.003,66.952c0-0.518,0.043-1.166,0.129-1.943s0.245-1.814,0.475-3.109c0.23-1.296,0.533-2.864,0.908-4.708
		c0.374-1.842,0.849-4.059,1.424-6.65c0.116-0.575,0.374-1.497,0.777-2.764c0.404-1.266,0.937-2.604,1.598-4.016
		c0.662-1.41,1.469-2.777,2.42-4.103c0.949-1.324,2.086-2.303,3.412-2.937c0.978,0.231,2.273,0.821,3.887,1.771
		c1.61,0.95,2.993,2.261,4.145,3.93c-1.325,1.498-2.434,2.994-3.324,4.491c-0.894,1.498-1.7,3.053-2.418,4.664
		c-0.722,1.613-1.383,3.283-1.988,5.01c-0.604,1.728-1.282,3.541-2.029,5.441c-0.634,1.612-1.209,3.269-1.727,4.966
		c-0.52,1.699-0.808,3.182-0.865,4.448c0,1.036-0.015,1.771-0.043,2.202c-0.029,0.432-0.187,0.648-0.475,0.648
		c-0.229,0-0.691-0.145-1.383-0.432c-0.689-0.289-1.396-0.734-2.115-1.339c-0.721-0.605-1.367-1.367-1.943-2.289
		C251.292,69.313,251.003,68.219,251.003,66.952z M267.5,29.466c0-0.345,0.088-0.864,0.26-1.555
		c-0.288-0.287-0.533-0.719-0.734-1.295c-0.202-0.575-0.303-1.093-0.303-1.555c0-0.518,0.072-1.222,0.217-2.116
		c0.144-0.892,0.33-1.857,0.561-2.894c0.229-1.036,0.52-2.116,0.865-3.239c0.345-1.123,0.69-2.145,1.035-3.066
		c0.691,0,1.539,0.188,2.548,0.562c1.008,0.375,2.029,0.864,3.066,1.468s1.986,1.268,2.85,1.987c0.865,0.721,1.525,1.396,1.988,2.03
		c-0.635,0.634-1.469,1.511-2.506,2.634c-1.037,1.123-2.044,2.304-3.023,3.541c-0.979,1.239-1.872,2.405-2.677,3.498
		c-0.808,1.094-1.325,1.872-1.555,2.332c-0.691-0.115-1.295-0.417-1.813-0.907C267.759,30.403,267.5,29.928,267.5,29.466z"/>
	<path d="M253.853,98.477c0-0.346,0.116-0.663,0.346-0.95c0.23-0.289,0.49-0.576,0.777-0.864c0.689,0.633,1.282,1.123,1.77,1.468
		c0.49,0.346,0.951,0.633,1.383,0.864c0.432,0.229,0.878,0.374,1.338,0.432c0.462,0.057,1.009,0.086,1.643,0.086
		c2.992,0,5.843-0.792,8.551-2.375c2.705-1.584,5.252-3.874,7.644-6.866c2.389-2.995,4.562-6.651,6.52-10.969
		c1.958-4.319,3.685-9.212,5.184-14.683c-0.691,0.691-1.542,1.455-2.549,2.289c-1.007,0.835-2.059,1.627-3.152,2.375
		c-1.095,0.75-2.173,1.44-3.238,2.073c-1.066,0.634-1.973,1.095-2.721,1.382c-0.98-0.173-1.887-0.589-2.721-1.252
		c-0.837-0.661-1.569-1.482-2.203-2.461c-0.635-0.979-1.122-2.086-1.468-3.325c-0.346-1.238-0.518-2.548-0.518-3.93
		c0-2.246,0.416-4.548,1.252-6.909c0.833-2.361,1.942-4.678,3.325-6.954c1.381-2.273,3.007-4.418,4.879-6.434
		c1.871-2.015,3.857-3.771,5.961-5.269c2.101-1.497,4.232-2.69,6.391-3.584c2.16-0.893,4.275-1.339,6.349-1.339
		c2.015,0,3.526,0.418,4.535,1.252c1.006,0.835,1.74,2.26,2.201,4.275c-0.633-0.345-1.438-0.518-2.418-0.518
		c-1.383,0-2.98,0.548-4.793,1.641c-1.814,1.095-3.658,2.52-5.528,4.275c-1.872,1.757-3.729,3.772-5.57,6.046
		c-1.844,2.275-3.47,4.593-4.881,6.953c-1.41,2.361-2.562,4.664-3.455,6.91c-0.893,2.246-1.338,4.262-1.338,6.046
		c0,0.403,0.028,0.647,0.086,0.733c0.057,0.087,0.143,0.13,0.26,0.13c0.518,0,1.223-0.288,2.115-0.863
		c0.892-0.575,1.9-1.31,3.023-2.203c1.123-0.893,2.289-1.929,3.498-3.11c1.209-1.179,2.36-2.375,3.455-3.584
		c2.474-2.763,4.734-5.858,6.779-9.285c2.044-3.425,3.671-6.75,4.88-9.976c1.555,0.116,2.938,0.375,4.146,0.777
		c1.209,0.404,2.043,0.835,2.504,1.296c-1.958,4.491-3.527,8.263-4.707,11.314c-1.181,3.053-2.203,5.759-3.066,8.119
		c-1.555,4.146-3.008,7.932-4.36,11.357c-1.355,3.425-2.736,6.593-4.146,9.501c-1.411,2.907-2.936,5.614-4.578,8.119
		c-1.641,2.504-3.498,4.908-5.57,7.212c-0.98,1.093-2.087,2.058-3.326,2.894c-1.238,0.834-2.504,1.54-3.8,2.116
		c-1.295,0.575-2.563,1.007-3.8,1.296c-1.24,0.288-2.376,0.432-3.411,0.432c-1.383,0-2.794-0.159-4.232-0.475
		c-1.439-0.317-2.778-0.749-4.018-1.295c-1.237-0.548-2.316-1.181-3.238-1.9C254.918,100.045,254.256,99.283,253.853,98.477z"/>
	<path d="M324.159,30.848c1.497,0.462,2.906,1.483,4.232,3.066c1.323,1.584,2.303,3.325,2.936,5.225
		c-0.633,1.555-1.612,3.427-2.936,5.615c-1.326,2.188-2.649,4.419-3.975,6.693c-1.324,2.275-2.519,4.435-3.583,6.478
		c-1.065,2.044-1.685,3.729-1.857,5.053c0.921-0.979,1.943-2.116,3.066-3.412c1.122-1.295,2.216-2.591,3.282-3.886
		c1.065-1.295,2.058-2.475,2.98-3.542c0.92-1.064,1.641-1.857,2.158-2.375c1.094-1.151,2.389-2.49,3.887-4.017
		c1.497-1.524,3.066-2.965,4.707-4.318c1.643-1.352,3.296-2.505,4.967-3.455c1.67-0.95,3.196-1.425,4.577-1.425
		c1.497,0,2.749,0.504,3.758,1.511c1.007,1.008,1.8,2.06,2.375,3.153c0,0.116-0.215,0.274-0.648,0.475
		c-0.432,0.202-1.05,0.764-1.855,1.684c-0.807,1.037-1.715,2.462-2.721,4.275c-1.009,1.814-1.988,3.772-2.938,5.874
		c-0.95,2.103-1.743,4.247-2.375,6.434c-0.635,2.189-0.95,4.176-0.95,5.96c0,1.44,0.187,2.362,0.562,2.764
		c0.374,0.404,0.906,0.604,1.598,0.604c0.634,0,1.295-0.143,1.986-0.432c0.691-0.288,1.237-0.432,1.641-0.432
		c0.23,0.116,0.417,0.36,0.563,0.734c0.143,0.375,0.215,0.706,0.215,0.993c-0.461,0.404-1.007,0.807-1.641,1.209
		c-0.633,0.404-1.295,0.777-1.986,1.123c-0.691,0.346-1.369,0.633-2.029,0.864c-0.663,0.229-1.253,0.346-1.771,0.346
		c-1.671,0-3.039-0.246-4.104-0.734c-1.065-0.488-1.9-1.136-2.504-1.943c-0.605-0.806-1.023-1.771-1.252-2.893
		c-0.231-1.123-0.346-2.317-0.346-3.584c0-0.691,0.056-1.468,0.172-2.332c0.115-0.864,0.346-1.885,0.691-3.066
		c0.346-1.18,0.833-2.591,1.469-4.232c0.633-1.641,1.438-3.613,2.418-5.917c-0.116,0-0.894,0.404-2.332,1.209
		c-1.44,0.807-2.995,2.045-4.664,3.714c-2.707,2.591-5.139,5.154-7.299,7.687c-2.159,2.535-4.361,5.355-6.606,8.464
		c-1.268,1.786-2.375,3.296-3.326,4.535c-0.949,1.237-1.77,2.058-2.461,2.462c-1.209-0.691-2.103-1.656-2.678-2.894
		c-0.577-1.239-1.009-2.519-1.295-3.844c0-1.093,0.157-2.475,0.475-4.146c0.315-1.67,0.747-3.526,1.295-5.571
		c0.548-2.043,1.223-4.189,2.029-6.435s1.698-4.491,2.678-6.737c2.188-5.066,4.189-9.039,6.003-11.919
		C322.561,32.634,323.698,31.079,324.159,30.848z"/>
</g>
<g>
	<path fill="#F0E7D7" d="M154.749,96.712c0,2.54-0.427,4.755-1.281,6.647c-0.854,1.893-2.065,3.337-3.631,4.334
		s-3.394,1.495-5.481,1.495c-2.041,0-3.851-0.501-5.429-1.504c-1.578-1.003-2.803-2.433-3.675-4.29s-1.32-4.007-1.344-6.452v-1.869
		c0-2.492,0.434-4.692,1.3-6.603c0.866-1.911,2.091-3.373,3.675-4.388s3.396-1.521,5.438-1.521c2.076,0,3.906,0.501,5.49,1.504
		s2.803,2.456,3.658,4.36c0.854,1.904,1.281,4.12,1.281,6.647V96.712z M151.35,95.039c0-3.073-0.617-5.431-1.851-7.074
		s-2.96-2.465-5.179-2.465c-2.16,0-3.859,0.822-5.1,2.465c-1.24,1.644-1.877,3.924-1.913,6.843v1.904
		c0,2.979,0.626,5.319,1.878,7.021c1.251,1.703,2.975,2.554,5.17,2.554c2.207,0,3.916-0.804,5.125-2.412
		c1.21-1.607,1.833-3.912,1.869-6.914V95.039z"/>
	<path fill="#F0E7D7" d="M175.661,99.417c0,2.943-0.676,5.307-2.029,7.093c-1.353,1.786-3.168,2.679-5.446,2.679
		c-2.432,0-4.313-0.86-5.642-2.581l-0.16,2.225h-3.025V81.495h3.292v10.198c1.329-1.649,3.162-2.474,5.5-2.474
		c2.337,0,4.174,0.884,5.508,2.652c1.335,1.768,2.002,4.189,2.002,7.262V99.417z M172.368,99.043c0-2.242-0.433-3.975-1.299-5.197
		c-0.866-1.222-2.112-1.833-3.738-1.833c-2.171,0-3.731,1.008-4.681,3.025v8.329c1.008,2.018,2.581,3.026,4.717,3.026
		c1.578,0,2.806-0.611,3.684-1.833C171.929,103.339,172.368,101.5,172.368,99.043z"/>
	<path fill="#F0E7D7" d="M183.208,89.575v21.482c0,3.702-1.679,5.553-5.037,5.553c-0.724,0-1.394-0.106-2.011-0.318v-2.619
		c0.38,0.095,0.878,0.143,1.495,0.143c0.736,0,1.296-0.2,1.682-0.597c0.385-0.398,0.579-1.089,0.579-2.075V89.575H183.208z
		 M179.577,84.467c0-0.522,0.163-0.97,0.489-1.343c0.326-0.374,0.804-0.561,1.433-0.561c0.64,0,1.127,0.184,1.459,0.552
		s0.499,0.819,0.499,1.353c0,0.534-0.167,0.979-0.499,1.335s-0.819,0.534-1.459,0.534c-0.641,0-1.122-0.178-1.442-0.534
		S179.577,85.001,179.577,84.467z"/>
	<path fill="#F0E7D7" d="M196.502,109.188c-2.61,0-4.734-0.857-6.372-2.572c-1.637-1.714-2.456-4.007-2.456-6.878v-0.605
		c0-1.91,0.365-3.616,1.095-5.117c0.729-1.501,1.75-2.675,3.061-3.524c1.311-0.848,2.732-1.272,4.263-1.272
		c2.503,0,4.45,0.825,5.837,2.474c1.389,1.649,2.083,4.011,2.083,7.083v1.37h-13.046c0.048,1.898,0.603,3.432,1.664,4.601
		c1.062,1.169,2.412,1.753,4.049,1.753c1.163,0,2.147-0.238,2.954-0.712c0.807-0.474,1.513-1.103,2.118-1.886l2.011,1.566
		C202.15,107.949,199.729,109.188,196.502,109.188z M196.093,91.924c-1.329,0-2.445,0.484-3.346,1.451
		c-0.902,0.967-1.46,2.323-1.673,4.066h9.646v-0.249c-0.095-1.673-0.546-2.969-1.353-3.889
		C198.561,92.385,197.469,91.924,196.093,91.924z"/>
	<path fill="#F0E7D7" d="M215.546,106.501c1.175,0,2.2-0.356,3.079-1.068c0.878-0.711,1.364-1.602,1.459-2.669h3.115
		c-0.059,1.104-0.439,2.154-1.139,3.15s-1.634,1.792-2.803,2.385c-1.168,0.593-2.406,0.89-3.71,0.89
		c-2.623,0-4.708-0.875-6.256-2.625c-1.548-1.75-2.323-4.144-2.323-7.181V98.83c0-1.875,0.344-3.542,1.033-5.001
		c0.688-1.459,1.675-2.592,2.963-3.399c1.288-0.807,2.809-1.21,4.565-1.21c2.158,0,3.953,0.647,5.383,1.94
		c1.43,1.293,2.191,2.972,2.287,5.037h-3.115c-0.095-1.246-0.566-2.269-1.415-3.07c-0.848-0.801-1.895-1.202-3.141-1.202
		c-1.674,0-2.97,0.603-3.89,1.807c-0.92,1.204-1.379,2.945-1.379,5.224v0.623c0,2.219,0.457,3.927,1.371,5.125
		C212.543,105.901,213.849,106.501,215.546,106.501z"/>
	<path fill="#F0E7D7" d="M231.367,84.913v4.663h3.596v2.545h-3.596v11.957c0,0.772,0.161,1.352,0.481,1.738
		c0.32,0.386,0.865,0.579,1.637,0.579c0.379,0,0.901-0.071,1.566-0.214v2.654c-0.867,0.236-1.708,0.354-2.528,0.354
		c-1.471,0-2.581-0.445-3.329-1.335c-0.748-0.89-1.121-2.154-1.121-3.791V92.12h-3.506v-2.545h3.506v-4.663H231.367z"/>
	<path fill="#F0E7D7" d="M250.02,103.724c0-0.89-0.336-1.581-1.006-2.073c-0.672-0.492-1.839-0.917-3.506-1.272
		c-1.667-0.356-2.991-0.783-3.97-1.282c-0.979-0.498-1.703-1.091-2.171-1.779c-0.468-0.688-0.703-1.507-0.703-2.456
		c0-1.578,0.668-2.913,2.003-4.004c1.335-1.092,3.04-1.638,5.117-1.638c2.184,0,3.953,0.564,5.313,1.691
		c1.358,1.127,2.038,2.569,2.038,4.325h-3.31c0-0.902-0.384-1.679-1.149-2.332c-0.765-0.652-1.729-0.979-2.892-0.979
		c-1.198,0-2.136,0.261-2.812,0.783s-1.015,1.205-1.015,2.046c0,0.795,0.314,1.395,0.943,1.798c0.629,0.404,1.765,0.79,3.408,1.157
		c1.645,0.368,2.976,0.807,3.996,1.316c1.021,0.511,1.776,1.125,2.269,1.842c0.493,0.718,0.74,1.593,0.74,2.625
		c0,1.72-0.688,3.1-2.066,4.138c-1.376,1.039-3.162,1.558-5.356,1.558c-1.542,0-2.907-0.273-4.093-0.819
		c-1.186-0.546-2.116-1.308-2.785-2.287c-0.67-0.979-1.006-2.038-1.006-3.177h3.293c0.06,1.104,0.501,1.978,1.326,2.625
		c0.824,0.647,1.913,0.97,3.266,0.97c1.247,0,2.246-0.252,3-0.756C249.643,105.24,250.02,104.567,250.02,103.724z"/>
</g>
<polygon opacity="0.5" fill="#F0E7D7" points="61.521,81.874 29.731,43.151 56.735,0.951 105.214,13.593 108.172,63.606 "/>
<polygon opacity="0.5" fill="#F0E7D7" points="39.928,44.855 10.361,46.142 0,18.419 23.164,0 47.841,16.337 "/>
</svg>
