<?xml version="1.0" encoding="utf-8"?>
<!-- Generator: Adobe Illustrator 16.0.0, SVG Export Plug-In . SVG Version: 6.00 Build 0)  -->
<!DOCTYPE svg PUBLIC "-//W3C//DTD SVG 1.1//EN" "http://www.w3.org/Graphics/SVG/1.1/DTD/svg11.dtd">
<svg version="1.1" xmlns="http://www.w3.org/2000/svg" xmlns:xlink="http://www.w3.org/1999/xlink" x="0px" y="0px"
	 width="546.05px" height="468.05px" viewBox="0 0 546.05 468.05" enable-background="new 0 0 546.05 468.05" xml:space="preserve">
<g id="Livello_11" display="none">
</g>
<g id="Livello_4" display="none">
</g>
<g id="Livello_10" display="none">
</g>
<g id="Livello_6" display="none">
</g>
<g id="Livello_9" display="none">
</g>
<g id="Livello_3" display="none">
</g>
<g id="Livello_5" display="none">
	<rect x="675.28" y="-16.28" display="inline" fill="#E8E8E8" width="590.5" height="529.58"/>
</g>
<g id="Livello_13" display="none">
</g>
<g id="Livello_12">
	<path fill="#090605" d="M247.84,14.27v177.68l-230.06,2.25c0,0,29.36-82.47,53.27-109.52c26.92-30.47,62.59-53.1,103.09-63.99
		c17.54-4.71,35.99-7.23,55.03-7.23C235.46,13.46,241.68,13.72,247.84,14.27z"/>
	<path fill="#E8E6E7" d="M229.26,20.69V181.7H22.75c7.38-36.72,24.39-69.96,48.3-97.02c26.92-30.47,62.59-53.1,103.09-63.99H229.26z
		"/>
	<path fill="#090605" d="M247.59,191.96l-0.24-0.19l-226.4,0.19c0,0.06,0.03-0.26,0.03-0.19l-0.03,0.19
		c-1.53,10.17-2.31,20.58-2.31,31.17c0,11.31,0.9,22.41,2.64,33.24l308.39-1.46L247.59,191.96z"/>
	<polygon fill="#090605" points="328.17,251.43 328.17,271.54 20.39,271.54 16.8,271.29 16.8,251.43 	"/>
	<line fill="none" x1="27.58" y1="219.61" x2="27.57" y2="219.38"/>
	<path fill="#FFFFFF" d="M229.26,20.69V181.7h-2.67L71.05,84.68c26.92-30.47,62.59-53.1,103.09-63.99H229.26z"/>
	<path fill="none" stroke="#090605" stroke-width="10" stroke-miterlimit="10" d="M304.54,414.73
		c71.68-28.8,123.8-95.77,130.96-175.62c0.56-6.23,0.85-12.53,0.85-18.9c0-19.43-2.66-38.24-7.63-56.1
		c-3.11-11.21-7.14-22.05-12.01-32.42c-1.31-2.8-2.68-5.57-4.11-8.3c-2.37-4.53-4.9-8.96-7.6-13.29c-2.17-3.51-4.45-6.95-6.84-10.32
		c-1.65-2.35-3.35-4.66-5.1-6.93c-3.09-4.02-6.32-7.93-9.69-11.71c-5.5-6.17-11.36-12.02-17.54-17.51
		c-37.21-33.02-86.26-53.09-140.02-53.09c-116.28,0-210.53,93.87-210.53,209.67c0,11.3,0.9,22.39,2.63,33.21
		c0.75,4.74,2.21,10.9,3.43,15.91c0.01,0.07,0.03,0.14,0.05,0.2"/>
	<polygon fill="#44B09E" points="425.29,98.06 424.33,101.87 424.05,102.97 417.39,129.08 393.58,222.51 376.76,288.5 
		370.77,287.53 358.82,285.59 357.92,285.45 327.98,280.6 329.96,272.83 334.59,254.67 340.55,231.25 340.95,229.69 375.37,94.65 
		375.92,92.49 376.51,90.18 377.05,90.27 394.31,93.06 411.69,95.86 411.97,95.91 423.79,97.82 	"/>
	<path fill="#FFFFFF" d="M393.53,70.23c-5.71,6.74-6.43,6.1-11.52,12.63c-1.77,2.27-5.39,7.48-6.39,10.38
		c-2.11,6.11,9.44,2.57,12.21-1.21c-1.13,3.32-0.83,9.29,4.87,9.83c5.48,0.51,7.01-4.58,8.73-7.29c0.48,2.29-0.2,9.03,4.39,8.96
		c3.51-0.05,5.5-6.66,6.03-8.14c1.15,5.67,3.38,8.3,12.59,7.56c-0.87-7.91-1.9-11.44-3.52-20.24c-0.75-4.09-1.44-6.66-2.69-10.78
		c-1.27-4.17-2.11-5.51-2.98-11.44c-2.78,2.85-8.69,1.14-11.19-1.96c-1.14,1.83-7.47,8.41-9.57,10.78L393.53,70.23z"/>
	<path fill="#44B09E" d="M401.81,61.34c2.18,2.03,12.66,4.3,13.68,1.11c0.45-1.42-1.68-4.54-1.96-6.04
		c-0.43-2.26-0.41-4.59-0.8-6.84c-3.14-1.02-4.93,3.64-6.12,5.53c-1.43,2.27-3.19,4.53-4.78,6.76c1.44,1.59,5.08,1.72,7.3,1.55
		L401.81,61.34z"/>
	<path fill="#FFFFFF" d="M416.77,107.04l-46.65,183.02l-11.95-1.93l45.3-178.21c0.53,0.38,2.42,0.27,3.58-0.54
		c2.64-1.84,3.48-4.44,4-5.92C411.75,106.88,413.99,105.9,416.77,107.04z"/>
	<path fill="#F5F6F7" d="M349.49,256.95l-0.42,2.13c-1.59,3.79-9.66,9.53-19.11,13.75c-13.01,5.83-28.65,8.78-33.61-0.15
		c-0.54-0.96-1.09-2.01-1.67-3.14c-0.68-1.32-1.4-2.75-2.12-4.25c-1.52-3.11-3.11-6.58-4.73-10.19c-0.24-0.55-0.5-1.1-0.75-1.67
		c-4.95-11.06-10.04-23.23-13.58-31.04c-0.01-0.03-0.03-0.05-0.03-0.08c-0.36-0.77-0.69-1.49-1-2.16
		c-2.19-4.71-3.81-8.95-4.74-12.75c-3.38-13.77,2.08-21.95,21.45-26.61c9.58-2.32,16.02-6.03,23.85-0.09
		c4.65,3.53,7.48,10.24,9.81,16.8c1.45,4.08,2.71,8.12,4.11,11.29c2.88,6.56,8.46,12.82,13.6,22.46c2.27,4.24,4.46,9.14,6.27,15.02
		C347.84,249.52,348.74,253.06,349.49,256.95z"/>
	<path fill="#F5F6F7" d="M313.16,183.09c-4.6-4.38-11.6-2.51-16.99-1c-2.68,0.75-7.05,1.93-9.04,3.66c-4.4,3.84-0.26,3.3,3.31,2.75
		c6.25-0.97,10.18-0.36,16.07,0.88c1.68,0.35,7.22,1.88,8.54,0.38c1.84-2.08-2.23-6.79-3.35-7.16L313.16,183.09z"/>
	<path fill="#44B09E" d="M325.35,196.09c-4.05,2.19-7.96,4.83-12.46,6.5c-5.4,2-11.21,3.27-16.64,5.39
		c-7.23,2.82-18.64,6.68-27.23,3.42c4.16,10.15,7.7,18.89,11.82,29.5c2.04,5.23,4.37,11.02,6.64,16.04
		c2.29,5.05,6.43,9.56,8.83,14.54c9.83-2,18.8-7.24,27.76-11.27c4.26-1.92,8.54-4.15,12.36-6.75c3.62-2.46,7.13-6.08,11.11-7.49
		c-1.89-4.23-0.79-4.33-2.78-8.55c-1.98-4.22-5.51-11.02-7.58-15.21c-3.77-7.64-10.43-17.83-12.12-25.42L325.35,196.09z"/>
	<path fill="#FFFFFF" d="M320.65,205.63c0.11-0.25,0.77-0.35,0.06-0.36c-2.87,1.44-6.56,3.02-9.53,3.73
		c2.29,6.07,6.83,11.26,9.02,17.57c2.16,6.2,2.62,12.82,6.08,18.29c2.82-0.65,9.47-3.35,10.76-6.04c1.46-3.03-3.08-8.91-4.56-11.55
		c-2.09-3.71-3.8-7.79-5.57-11.46c-1.29-2.68-2.92-9.44-5.49-10.69C321.09,205.24,320.93,205.47,320.65,205.63L320.65,205.63z"/>
	<path fill="#44B09E" d="M477.06,178.78c-0.44,1.45-1.18,3.02-2.13,4.65c0.01,0.01,0.01,0.01,0,0.01
		c-3.39,5.83-9.35,12.4-12.48,17.04c-7.36,10.9-15.29,22.02-22.99,32.98c-3.01,4.3-6,8.59-8.91,12.82
		c-13.37,19.49-26.91,38.72-41.18,57.78c-9.33,12.5-19,24.92-29.16,37.31c-6.02,7.35-36.33,41.61-36.97,18.35l13.91-34.17l2.07-5.1
		c5.19-11.6,11.89-23.33,18.71-35.01c0.55-0.96,1.11-1.92,1.67-2.89c4.19-7.18,8.38-14.35,12.23-21.46
		c3.51-6.49,7.02-12.78,10.53-18.99c3.72-6.57,7.44-13.05,11.23-19.6c2.24-3.89,4.5-7.81,6.79-11.78
		c9.67-16.81,20.66-33.38,30.04-49.46c0.1-0.18,0.19-0.35,0.3-0.51c1.68-2.91,3.3-5.79,4.86-8.66c4.94-9.08,7.19-10.23,17.02-4.9
		c5.63,3.05,10.75,8.46,15.64,13.02c1.39,1.29,2.7,2.46,3.88,3.57c3.13,2.92,5.35,5.47,5.68,9.21
		C477.93,174.64,477.73,176.53,477.06,178.78z"/>
	<path fill="#FFFFFF" d="M479.19,147.26c-13.28-5.02-34.75-8.64-35.59-26.35c-0.75-15.68,6.58-28.12,20.82-34.11
		c11.7-4.92,23.99-7.79,35.15-14.17c10.55-6.04,23.89-14.09,25.58-27.08c0.55-4.25,0.98-12.13-2.71-14.72
		c0.4,6.2,3.93,13.62,5.08,20.29c1.97-3.2,2.04-7.48,1.32-11.23c3.44,10.03,9.05,21.72,9.21,33.13c0.19,13.21-2.08,27.24-4.04,40.24
		c-2.79,18.51-14.47,38.22-32.57,45.17c-16.2,6.21-38.94,1.35-48.73-13.97c-1.78-2.79-2.83-8.19-3.6-9.3L479.19,147.26z"/>
	<path fill="#44B09E" d="M523.8,48.41c-1.13,25.51-36.82,31.83-53.02,44.08c4.18-2.4,9-3.63,13.54-5.17
		c7.27-2.46,12.52-6.46,19.17-10.11c-4.95,8.88-16.84,17.93-26.32,21.67c9.96-3.61,24.62-10.87,32.28-18.68
		c-10.06,9.82-19.98,18.52-31.12,27.15c13.61-5.36,26.05-14.48,37.16-23.73c-7.83,14.71-23.76,23.87-30.96,38.35
		c4.39-1,8.33-7.28,11.71-10.55c5.09-4.94,10.41-9.94,15.79-14.52c-7.36,9.35-15.29,22.64-17.14,34.68
		c0.5-6.71,8.49-14.46,11.91-20.18c4.18-6.98,8.31-14.48,11.35-22.04c-0.8,13.38-5.98,28.74-15.12,38.63
		c9.24-11.86,19.21-26.78,21.26-42.22c0.15,5.19,0.69,9.84-0.22,15.05c-0.14-3.24,0.93-6.45,1.94-9.51
		c0.37,6.77-1.96,13.97-2.82,20.64c-0.2-5.53,3.79-15.83,7.29-20.38c-1.09,4.37-2.43,9.11-2.1,13.59c4.43-4.71,4.97-13.22,4.2-19.38
		c5.11,16.87-1.16,32.69-10.29,46.82c10.92-17.9,9.8-36.97,10.8-56.46c0.43-8.46,0.9-17.76-2.46-25c0.32,5.81-2.78,11.43-5.94,16.21
		c1.81-3.1,2.66-7.15,2.39-10.76c-0.21,4.41-1.82,8.85-4.8,12.2c-0.26-6.87,1.57-14.43,1.58-21.61
		C525.16,47.75,523.84,47.94,523.8,48.41L523.8,48.41z"/>
	<path fill="#676566" d="M448.04,133.4c-4.44,0.91-12.86,15.5-15.61,20.52c-4.8,8.75,1.02,16.27,8.67,21.76
		c5.2,3.74,20.94,14.94,26.96,12.84c7.32-2.55,14.04-15.42,19.63-20.85c1.92-1.86,4.01-3.48,5.57-5.75
		c-8.79-4.03-19.31-3.11-28.21-9.31c-7.14-4.97-11.22-15.21-17.65-19.15L448.04,133.4z"/>
	<path fill="#B4B2B3" d="M472.31,162.73c-0.99,6.64-7.92,9.62-10.5,15.3c-2.46,5.41,1.84,6.55,6.19,4.83
		c5.35-2.12,9.26-8.05,11.41-13.31c2.7-6.57-2.38-4.88-7.03-5.97L472.31,162.73z"/>
	<path fill="#FFFFFF" d="M450.11,191.68c-1.35,7.87-10.23,18.77-14.54,25.7c-4.01,6.45-14.47,17.58-14.87,24.7
		c10.43,1.45,17.53-16.74,22.04-23.34c5.02-7.36,15.29-16.05,17.16-24.51c-3.04-0.14-7.68-1.2-9.69-1.27L450.11,191.68z"/>
	<path fill="#090605" d="M417.4,419c-28.71,36.05-74.04,47.85-101.26,26.35c-7.35-5.8-12.62-13.42-15.85-22.19
		c-8.73-23.7-2.42-55.67,18.52-81.99c4.36-5.49,9.12-10.41,14.14-14.73c16.7-14.45,36.33-22.28,54.35-22.37
		c11.43-0.04,22.22,3.04,31.18,9.54c0.54,0.39,1.07,0.79,1.59,1.2C447.29,336.3,446.09,382.94,417.4,419z"/>
	<path fill="#FFFFFF" d="M406.72,355.35c-6.66,9.53-17.88,13.21-25.08,8.23c-7.19-4.98-7.63-16.75-0.97-26.28
		c6.65-9.53,17.88-13.21,25.08-8.22C412.94,334.06,413.38,345.82,406.72,355.35z"/>
	<rect x="24.66" y="282.96" fill="none" width="468.58" height="219.64"/>
	<text transform="matrix(0.6536 0 0 1 24.6641 361.1499)"><tspan x="0" y="0" fill="#44B09E" font-family="'Impact'" font-size="98.8558">NOEMI  </tspan><tspan x="0" y="94.48" fill="#44B09E" font-family="'Impact'" font-size="98.8558">BISICCHIA</tspan></text>
</g>
</svg>
